%TF.GenerationSoftware,KiCad,Pcbnew,6.0.2+dfsg-1*%
%TF.CreationDate,2024-01-30T23:14:53-06:00*%
%TF.ProjectId,PCB,5043422e-6b69-4636-9164-5f7063625858,0.11*%
%TF.SameCoordinates,Original*%
%TF.FileFunction,Soldermask,Top*%
%TF.FilePolarity,Negative*%
%FSLAX46Y46*%
G04 Gerber Fmt 4.6, Leading zero omitted, Abs format (unit mm)*
G04 Created by KiCad (PCBNEW 6.0.2+dfsg-1) date 2024-01-30 23:14:53*
%MOMM*%
%LPD*%
G01*
G04 APERTURE LIST*
G04 Aperture macros list*
%AMRoundRect*
0 Rectangle with rounded corners*
0 $1 Rounding radius*
0 $2 $3 $4 $5 $6 $7 $8 $9 X,Y pos of 4 corners*
0 Add a 4 corners polygon primitive as box body*
4,1,4,$2,$3,$4,$5,$6,$7,$8,$9,$2,$3,0*
0 Add four circle primitives for the rounded corners*
1,1,$1+$1,$2,$3*
1,1,$1+$1,$4,$5*
1,1,$1+$1,$6,$7*
1,1,$1+$1,$8,$9*
0 Add four rect primitives between the rounded corners*
20,1,$1+$1,$2,$3,$4,$5,0*
20,1,$1+$1,$4,$5,$6,$7,0*
20,1,$1+$1,$6,$7,$8,$9,0*
20,1,$1+$1,$8,$9,$2,$3,0*%
G04 Aperture macros list end*
%ADD10RoundRect,0.500000X-3.000000X-0.500000X3.000000X-0.500000X3.000000X0.500000X-3.000000X0.500000X0*%
%ADD11RoundRect,0.100000X-0.637500X-0.100000X0.637500X-0.100000X0.637500X0.100000X-0.637500X0.100000X0*%
%ADD12RoundRect,0.225000X0.250000X-0.225000X0.250000X0.225000X-0.250000X0.225000X-0.250000X-0.225000X0*%
%ADD13RoundRect,0.250000X0.650000X-0.325000X0.650000X0.325000X-0.650000X0.325000X-0.650000X-0.325000X0*%
%ADD14RoundRect,0.250000X-0.250000X-0.475000X0.250000X-0.475000X0.250000X0.475000X-0.250000X0.475000X0*%
%ADD15RoundRect,0.135000X0.135000X0.185000X-0.135000X0.185000X-0.135000X-0.185000X0.135000X-0.185000X0*%
%ADD16R,1.730000X2.030000*%
%ADD17O,1.730000X2.030000*%
%ADD18R,1.600000X1.600000*%
%ADD19C,1.600000*%
G04 APERTURE END LIST*
D10*
%TO.C,U2*%
X132525000Y-97690000D03*
X132525000Y-90190000D03*
%TD*%
D11*
%TO.C,U1*%
X146747500Y-91035000D03*
X146747500Y-91685000D03*
X146747500Y-92335000D03*
X146747500Y-92985000D03*
X146747500Y-93635000D03*
X146747500Y-94285000D03*
X146747500Y-94935000D03*
X146747500Y-95585000D03*
X146747500Y-96235000D03*
X146747500Y-96885000D03*
X152472500Y-96885000D03*
X152472500Y-96235000D03*
X152472500Y-95585000D03*
X152472500Y-94935000D03*
X152472500Y-94285000D03*
X152472500Y-93635000D03*
X152472500Y-92985000D03*
X152472500Y-92335000D03*
X152472500Y-91685000D03*
X152472500Y-91035000D03*
%TD*%
D12*
%TO.C,C2*%
X144910000Y-96375000D03*
X144910000Y-94825000D03*
%TD*%
D13*
%TO.C,C1*%
X142830000Y-97045000D03*
X142830000Y-94095000D03*
%TD*%
D14*
%TO.C,C4*%
X148240000Y-98690000D03*
X150140000Y-98690000D03*
%TD*%
D15*
%TO.C,R2*%
X153540000Y-98100000D03*
X152520000Y-98100000D03*
%TD*%
D16*
%TO.C,J1*%
X151500000Y-89092000D03*
D17*
X148960000Y-89092000D03*
X146420000Y-89092000D03*
%TD*%
D18*
%TO.C,U3*%
X157640000Y-88870000D03*
D19*
X157640000Y-91410000D03*
X157640000Y-93950000D03*
X157640000Y-96490000D03*
X157640000Y-99030000D03*
X172880000Y-99030000D03*
X172880000Y-96490000D03*
X172880000Y-93950000D03*
X172880000Y-91410000D03*
X172880000Y-88870000D03*
%TD*%
D12*
%TO.C,C3*%
X143950000Y-91955000D03*
X143950000Y-90405000D03*
%TD*%
D15*
%TO.C,R1*%
X153540000Y-99250000D03*
X152520000Y-99250000D03*
%TD*%
M02*
