%TF.GenerationSoftware,KiCad,Pcbnew,6.0.2+dfsg-1*%
%TF.CreationDate,2024-01-30T23:14:53-06:00*%
%TF.ProjectId,PCB,5043422e-6b69-4636-9164-5f7063625858,0.11*%
%TF.SameCoordinates,Original*%
%TF.FileFunction,Copper,L2,Bot*%
%TF.FilePolarity,Positive*%
%FSLAX46Y46*%
G04 Gerber Fmt 4.6, Leading zero omitted, Abs format (unit mm)*
G04 Created by KiCad (PCBNEW 6.0.2+dfsg-1) date 2024-01-30 23:14:53*
%MOMM*%
%LPD*%
G01*
G04 APERTURE LIST*
%TA.AperFunction,ComponentPad*%
%ADD10R,1.730000X2.030000*%
%TD*%
%TA.AperFunction,ComponentPad*%
%ADD11O,1.730000X2.030000*%
%TD*%
%TA.AperFunction,ComponentPad*%
%ADD12R,1.600000X1.600000*%
%TD*%
%TA.AperFunction,ComponentPad*%
%ADD13C,1.600000*%
%TD*%
%TA.AperFunction,ViaPad*%
%ADD14C,0.800000*%
%TD*%
%TA.AperFunction,ViaPad*%
%ADD15C,1.300000*%
%TD*%
%TA.AperFunction,Conductor*%
%ADD16C,0.300000*%
%TD*%
G04 APERTURE END LIST*
D10*
%TO.P,J1,1,Pin_1*%
%TO.N,G*%
X151500000Y-89092000D03*
D11*
%TO.P,J1,2,Pin_2*%
%TO.N,C*%
X148960000Y-89092000D03*
%TO.P,J1,3,Pin_3*%
%TO.N,GND*%
X146420000Y-89092000D03*
%TD*%
D12*
%TO.P,U3,1,E*%
%TO.N,E*%
X157640000Y-88870000D03*
D13*
%TO.P,U3,2,D*%
%TO.N,D*%
X157640000Y-91410000D03*
%TO.P,U3,3,CC*%
%TO.N,Net-(R2-Pad1)*%
X157640000Y-93950000D03*
%TO.P,U3,4,C*%
%TO.N,C*%
X157640000Y-96490000D03*
%TO.P,U3,5,DP*%
%TO.N,unconnected-(U3-Pad5)*%
X157640000Y-99030000D03*
%TO.P,U3,6,B*%
%TO.N,B*%
X172880000Y-99030000D03*
%TO.P,U3,7,A*%
%TO.N,A*%
X172880000Y-96490000D03*
%TO.P,U3,8,CC*%
%TO.N,Net-(R1-Pad1)*%
X172880000Y-93950000D03*
%TO.P,U3,9,F*%
%TO.N,F*%
X172880000Y-91410000D03*
%TO.P,U3,10,G*%
%TO.N,G*%
X172880000Y-88870000D03*
%TD*%
D14*
%TO.N,GND*%
X151480000Y-99250000D03*
X148330000Y-94650000D03*
X151480000Y-98100000D03*
D15*
%TO.N,/NRST*%
X144990000Y-93340000D03*
D14*
%TO.N,Net-(R1-Pad1)*%
X169335023Y-94004977D03*
X170404977Y-92955023D03*
%TO.N,F*%
X156020000Y-91784500D03*
%TO.N,G*%
X171344847Y-92159500D03*
X150830000Y-91670000D03*
%TO.N,B*%
X155545023Y-94985023D03*
%TO.N,C*%
X148590000Y-92880000D03*
%TD*%
D16*
%TO.N,Net-(R1-Pad1)*%
X170404977Y-92955023D02*
X170384977Y-92955023D01*
X170384977Y-92955023D02*
X169335023Y-94004977D01*
%TO.N,F*%
X159690000Y-91440000D02*
X159720000Y-91410000D01*
X157164345Y-90260000D02*
X158510000Y-90260000D01*
X156020000Y-91784500D02*
X156020000Y-91404345D01*
X156020000Y-91404345D02*
X157164345Y-90260000D01*
X158510000Y-90260000D02*
X159690000Y-91440000D01*
X159720000Y-91410000D02*
X172880000Y-91410000D01*
%TO.N,G*%
X169740519Y-92559511D02*
X170140530Y-92159500D01*
X170140530Y-92159500D02*
X171344847Y-92159500D01*
X150830000Y-91670000D02*
X150830000Y-89762000D01*
X154967511Y-92559511D02*
X169740519Y-92559511D01*
X150830000Y-89762000D02*
X151500000Y-89092000D01*
X151500000Y-89092000D02*
X154967511Y-92559511D01*
%TO.N,B*%
X155659511Y-95099511D02*
X158519511Y-95099511D01*
X155545023Y-94985023D02*
X155659511Y-95099511D01*
X158519511Y-95099511D02*
X162450000Y-99030000D01*
X162450000Y-99030000D02*
X172880000Y-99030000D01*
%TO.N,C*%
X148590000Y-92880000D02*
X152200000Y-96490000D01*
X152200000Y-96490000D02*
X157640000Y-96490000D01*
X148960000Y-92510000D02*
X148960000Y-89092000D01*
X148590000Y-92880000D02*
X148960000Y-92510000D01*
%TD*%
%TA.AperFunction,Conductor*%
%TO.N,GND*%
G36*
X145159607Y-88159685D02*
G01*
X145205362Y-88212489D01*
X145215306Y-88281647D01*
X145200332Y-88325343D01*
X145178998Y-88362820D01*
X145174615Y-88372308D01*
X145099156Y-88580192D01*
X145096431Y-88590293D01*
X145056872Y-88809059D01*
X145055953Y-88817160D01*
X145055536Y-88825995D01*
X145059404Y-88839169D01*
X145060774Y-88840356D01*
X145068332Y-88842000D01*
X146546000Y-88842000D01*
X146613039Y-88861685D01*
X146658794Y-88914489D01*
X146670000Y-88966000D01*
X146670000Y-90566469D01*
X146673910Y-90579786D01*
X146684352Y-90581288D01*
X146808519Y-90555235D01*
X146818553Y-90552225D01*
X147024238Y-90470995D01*
X147033609Y-90466343D01*
X147222670Y-90351619D01*
X147231127Y-90345452D01*
X147398154Y-90200514D01*
X147405451Y-90193009D01*
X147545671Y-90021999D01*
X147551596Y-90013378D01*
X147661002Y-89821180D01*
X147665385Y-89811692D01*
X147683191Y-89762639D01*
X147724569Y-89706339D01*
X147789815Y-89681347D01*
X147858216Y-89695597D01*
X147910962Y-89750104D01*
X147961991Y-89853581D01*
X148090154Y-90025213D01*
X148094324Y-90029068D01*
X148094327Y-90029071D01*
X148159323Y-90089152D01*
X148247449Y-90170615D01*
X148252258Y-90173649D01*
X148252259Y-90173650D01*
X148276507Y-90188949D01*
X148428607Y-90284917D01*
X148433888Y-90287024D01*
X148438952Y-90289604D01*
X148438104Y-90291269D01*
X148486425Y-90329181D01*
X148509500Y-90401223D01*
X148509500Y-92081132D01*
X148489815Y-92148171D01*
X148437011Y-92193926D01*
X148414448Y-92201706D01*
X148351296Y-92216868D01*
X148344032Y-92218612D01*
X148337399Y-92222035D01*
X148337395Y-92222037D01*
X148302285Y-92240159D01*
X148193369Y-92296375D01*
X148187737Y-92301288D01*
X148072497Y-92401818D01*
X148065604Y-92407831D01*
X147968113Y-92546547D01*
X147906524Y-92704513D01*
X147905548Y-92711923D01*
X147905548Y-92711925D01*
X147895600Y-92787488D01*
X147884394Y-92872611D01*
X147885214Y-92880039D01*
X147885214Y-92880041D01*
X147896453Y-92981840D01*
X147902999Y-93041135D01*
X147905565Y-93048147D01*
X147905566Y-93048151D01*
X147943445Y-93151658D01*
X147961266Y-93200356D01*
X147965433Y-93206558D01*
X147965435Y-93206561D01*
X147971250Y-93215214D01*
X148055830Y-93341083D01*
X148061360Y-93346115D01*
X148175702Y-93450159D01*
X148175706Y-93450162D01*
X148181233Y-93455191D01*
X148330235Y-93536092D01*
X148411266Y-93557350D01*
X148487005Y-93577220D01*
X148487007Y-93577220D01*
X148494233Y-93579116D01*
X148604313Y-93580845D01*
X148671034Y-93601580D01*
X148690046Y-93617149D01*
X151857333Y-96784436D01*
X151867031Y-96795349D01*
X151888128Y-96822110D01*
X151933440Y-96853427D01*
X151936400Y-96855473D01*
X151939568Y-96857737D01*
X151979356Y-96887125D01*
X151979364Y-96887129D01*
X151986817Y-96892634D01*
X151993631Y-96895027D01*
X151999569Y-96899131D01*
X152008408Y-96901926D01*
X152008407Y-96901926D01*
X152055548Y-96916835D01*
X152059243Y-96918068D01*
X152114631Y-96937519D01*
X152121733Y-96937798D01*
X152121989Y-96937847D01*
X152128730Y-96939980D01*
X152135337Y-96940500D01*
X152188068Y-96940500D01*
X152192937Y-96940596D01*
X152240727Y-96942474D01*
X152240728Y-96942474D01*
X152249994Y-96942838D01*
X152257078Y-96940960D01*
X152265438Y-96940500D01*
X156556406Y-96940500D01*
X156623445Y-96960185D01*
X156669016Y-97012586D01*
X156682856Y-97042607D01*
X156799588Y-97207780D01*
X156944466Y-97348913D01*
X157112637Y-97461282D01*
X157298470Y-97541122D01*
X157394502Y-97562852D01*
X157490193Y-97584505D01*
X157490195Y-97584505D01*
X157495740Y-97585760D01*
X157613135Y-97590372D01*
X157692161Y-97593477D01*
X157692163Y-97593477D01*
X157697842Y-97593700D01*
X157703462Y-97592885D01*
X157703465Y-97592885D01*
X157892387Y-97565493D01*
X157892389Y-97565493D01*
X157898007Y-97564678D01*
X157903384Y-97562853D01*
X157903387Y-97562852D01*
X157988090Y-97534099D01*
X158089531Y-97499664D01*
X158266001Y-97400837D01*
X158328433Y-97348913D01*
X158417138Y-97275137D01*
X158421505Y-97271505D01*
X158550837Y-97116001D01*
X158649664Y-96939531D01*
X158691995Y-96814830D01*
X158712852Y-96753387D01*
X158712853Y-96753384D01*
X158714678Y-96748007D01*
X158743700Y-96547842D01*
X158745215Y-96490000D01*
X158726708Y-96288591D01*
X158720259Y-96265725D01*
X158721008Y-96195860D01*
X158759411Y-96137491D01*
X158823274Y-96109149D01*
X158892322Y-96119833D01*
X158927285Y-96144388D01*
X162107333Y-99324436D01*
X162117031Y-99335349D01*
X162138128Y-99362110D01*
X162183440Y-99393427D01*
X162186400Y-99395473D01*
X162189568Y-99397737D01*
X162229356Y-99427125D01*
X162229364Y-99427129D01*
X162236817Y-99432634D01*
X162243631Y-99435027D01*
X162249569Y-99439131D01*
X162289634Y-99451802D01*
X162305522Y-99456827D01*
X162309212Y-99458058D01*
X162364631Y-99477520D01*
X162371733Y-99477799D01*
X162371995Y-99477851D01*
X162378730Y-99479980D01*
X162385337Y-99480500D01*
X162438059Y-99480500D01*
X162442926Y-99480596D01*
X162499994Y-99482838D01*
X162507075Y-99480960D01*
X162515438Y-99480500D01*
X171796406Y-99480500D01*
X171863445Y-99500185D01*
X171909014Y-99552583D01*
X171914316Y-99564083D01*
X171924509Y-99633205D01*
X171895713Y-99696865D01*
X171837071Y-99734851D01*
X171801708Y-99740000D01*
X158715360Y-99740000D01*
X158648321Y-99720315D01*
X158602566Y-99667511D01*
X158592622Y-99598353D01*
X158607170Y-99555412D01*
X158646884Y-99484496D01*
X158646886Y-99484492D01*
X158649664Y-99479531D01*
X158691995Y-99354830D01*
X158712852Y-99293387D01*
X158712853Y-99293384D01*
X158714678Y-99288007D01*
X158743700Y-99087842D01*
X158745215Y-99030000D01*
X158726708Y-98828591D01*
X158671807Y-98633926D01*
X158582351Y-98452527D01*
X158461335Y-98290467D01*
X158312812Y-98153174D01*
X158141757Y-98045246D01*
X157953898Y-97970298D01*
X157948317Y-97969188D01*
X157948314Y-97969187D01*
X157880373Y-97955673D01*
X157755526Y-97930839D01*
X157749839Y-97930765D01*
X157749834Y-97930764D01*
X157558975Y-97928266D01*
X157558970Y-97928266D01*
X157553286Y-97928192D01*
X157547682Y-97929155D01*
X157547681Y-97929155D01*
X157359546Y-97961482D01*
X157359543Y-97961483D01*
X157353949Y-97962444D01*
X157332660Y-97970298D01*
X157169521Y-98030483D01*
X157169517Y-98030485D01*
X157164193Y-98032449D01*
X157159310Y-98035354D01*
X157159308Y-98035355D01*
X157142683Y-98045246D01*
X156990371Y-98135862D01*
X156838305Y-98269220D01*
X156713089Y-98428057D01*
X156618914Y-98607053D01*
X156617229Y-98612479D01*
X156617228Y-98612482D01*
X156610570Y-98633926D01*
X156558937Y-98800213D01*
X156535164Y-99001069D01*
X156535535Y-99006731D01*
X156535535Y-99006735D01*
X156540851Y-99087842D01*
X156548392Y-99202894D01*
X156598178Y-99398928D01*
X156600552Y-99404076D01*
X156600557Y-99404092D01*
X156674317Y-99564086D01*
X156684508Y-99633208D01*
X156655711Y-99696867D01*
X156597068Y-99734851D01*
X156561708Y-99740000D01*
X129164000Y-99740000D01*
X129096961Y-99720315D01*
X129051206Y-99667511D01*
X129040000Y-99616000D01*
X129040000Y-93326665D01*
X144034994Y-93326665D01*
X144050592Y-93512414D01*
X144052261Y-93518234D01*
X144052261Y-93518235D01*
X144061829Y-93551601D01*
X144101971Y-93691595D01*
X144104743Y-93696989D01*
X144104744Y-93696991D01*
X144134174Y-93754254D01*
X144187176Y-93857385D01*
X144213462Y-93890550D01*
X144298299Y-93997588D01*
X144302959Y-94003468D01*
X144444912Y-94124279D01*
X144450210Y-94127240D01*
X144584670Y-94202387D01*
X144607627Y-94215217D01*
X144784907Y-94272819D01*
X144969998Y-94294890D01*
X144976041Y-94294425D01*
X144976043Y-94294425D01*
X145033482Y-94290005D01*
X145155851Y-94280589D01*
X145233235Y-94258983D01*
X145329547Y-94232093D01*
X145329551Y-94232091D01*
X145335387Y-94230462D01*
X145501768Y-94146417D01*
X145506547Y-94142683D01*
X145506552Y-94142680D01*
X145582171Y-94083599D01*
X145648655Y-94031656D01*
X145770454Y-93890550D01*
X145789295Y-93857385D01*
X145859530Y-93733748D01*
X145862526Y-93728474D01*
X145921364Y-93551601D01*
X145922966Y-93538925D01*
X145938251Y-93417926D01*
X145944727Y-93366668D01*
X145945099Y-93340000D01*
X145944384Y-93332711D01*
X145927501Y-93160523D01*
X145927501Y-93160521D01*
X145926909Y-93154487D01*
X145873033Y-92976040D01*
X145869100Y-92968642D01*
X145788371Y-92816814D01*
X145788371Y-92816813D01*
X145785522Y-92811456D01*
X145667710Y-92667005D01*
X145572398Y-92588155D01*
X145528760Y-92552054D01*
X145528757Y-92552052D01*
X145524085Y-92548187D01*
X145460303Y-92513700D01*
X145365447Y-92462411D01*
X145365443Y-92462409D01*
X145360116Y-92459529D01*
X145182049Y-92404409D01*
X144996668Y-92384924D01*
X144990635Y-92385473D01*
X144990631Y-92385473D01*
X144817074Y-92401268D01*
X144817073Y-92401268D01*
X144811032Y-92401818D01*
X144805213Y-92403531D01*
X144805211Y-92403531D01*
X144759836Y-92416886D01*
X144632214Y-92454448D01*
X144467023Y-92540807D01*
X144462295Y-92544608D01*
X144462294Y-92544609D01*
X144327973Y-92652606D01*
X144321752Y-92657608D01*
X144201935Y-92800401D01*
X144168531Y-92861162D01*
X144116931Y-92955023D01*
X144112135Y-92963746D01*
X144110303Y-92969521D01*
X144097222Y-93010759D01*
X144055772Y-93141424D01*
X144055096Y-93147452D01*
X144037340Y-93305752D01*
X144034994Y-93326665D01*
X129040000Y-93326665D01*
X129040000Y-89357937D01*
X145059902Y-89357937D01*
X145069206Y-89467586D01*
X145070970Y-89477903D01*
X145126526Y-89691953D01*
X145130005Y-89701832D01*
X145220829Y-89903452D01*
X145225926Y-89912610D01*
X145349427Y-90096052D01*
X145355980Y-90104202D01*
X145508628Y-90264220D01*
X145516468Y-90271156D01*
X145693896Y-90403166D01*
X145702784Y-90408677D01*
X145899911Y-90508902D01*
X145909620Y-90512844D01*
X146120803Y-90578418D01*
X146131039Y-90580669D01*
X146152326Y-90583490D01*
X146166268Y-90581329D01*
X146170000Y-90568353D01*
X146170000Y-89359830D01*
X146165596Y-89344831D01*
X146164226Y-89343644D01*
X146156668Y-89342000D01*
X145076380Y-89342000D01*
X145061932Y-89346242D01*
X145059902Y-89357937D01*
X129040000Y-89357937D01*
X129040000Y-88264000D01*
X129059685Y-88196961D01*
X129112489Y-88151206D01*
X129164000Y-88140000D01*
X145092568Y-88140000D01*
X145159607Y-88159685D01*
G37*
%TD.AperFunction*%
%TD*%
M02*
