M48
; DRILL file {KiCad 6.0.2+dfsg-1} date Tue 30 Jan 2024 11:15:13 PM CST
; FORMAT={-:-/ absolute / inch / decimal}
; #@! TF.CreationDate,2024-01-30T23:15:13-06:00
; #@! TF.GenerationSoftware,Kicad,Pcbnew,6.0.2+dfsg-1
; #@! TF.FileFunction,Plated,1,2,PTH
FMAT,2
INCH
; #@! TA.AperFunction,Plated,PTH,ViaDrill
T1C0.0157
; #@! TA.AperFunction,Plated,PTH,ViaDrill
T2C0.0315
; #@! TA.AperFunction,Plated,PTH,ComponentDrill
T3C0.0315
; #@! TA.AperFunction,Plated,PTH,ComponentDrill
T4C0.0402
%
G90
G05
T1
X5.8398Y-3.7264
X5.85Y-3.6567
X5.9382Y-3.6091
X5.9638Y-3.8622
X5.9638Y-3.9075
X6.1238Y-3.7396
X6.1425Y-3.6136
X6.6667Y-3.701
X6.7089Y-3.6596
X6.7459Y-3.6283
T2
X5.7083Y-3.6748
T3
X6.2063Y-3.4988
X6.2063Y-3.5988
X6.2063Y-3.6988
X6.2063Y-3.7988
X6.2063Y-3.8988
X6.8063Y-3.4988
X6.8063Y-3.5988
X6.8063Y-3.6988
X6.8063Y-3.7988
X6.8063Y-3.8988
T4
X5.7646Y-3.5076
X5.8646Y-3.5076
X5.9646Y-3.5076
T0
M30
